<svg width="38" height="43" viewBox="0 0 38 43" fill="none" xmlns="http://www.w3.org/2000/svg">
<path d="M36.2717 14.6602C36.0048 14.8537 31.2919 17.335 31.2919 22.8525C31.2919 29.2343 37.2889 31.492 37.4683 31.548C37.4407 31.6856 36.5156 34.64 34.3065 37.6503C32.3366 40.2993 30.2794 42.9441 27.1497 42.9441C24.0201 42.9441 23.2146 41.2454 19.6017 41.2454C16.0809 41.2454 14.829 43 11.9663 43C9.1036 43 7.10615 40.5488 4.80954 37.5385C2.14933 34.0035 0 28.5119 0 23.2997C0 14.9397 5.81747 10.506 11.5429 10.506C14.5851 10.506 17.121 12.3723 19.031 12.3723C20.849 12.3723 23.6841 10.3941 27.1451 10.3941C28.4568 10.3941 33.1697 10.5059 36.2717 14.6602ZM25.502 6.85489C26.9334 5.26803 27.9459 3.06621 27.9459 0.864386C27.9459 0.559056 27.9183 0.249425 27.8585 0C25.5297 0.0817082 22.759 1.44925 21.0883 3.25973C19.7766 4.65307 18.5524 6.85489 18.5524 9.08681C18.5524 9.42224 18.6122 9.75768 18.6398 9.86519C18.7871 9.89099 19.0264 9.92109 19.2658 9.92109C21.3553 9.92109 23.9832 8.61376 25.502 6.85489Z" fill="black"/>
</svg>
