<svg width="40" height="40" viewBox="0 0 40 40" fill="none" xmlns="http://www.w3.org/2000/svg">
<rect width="40" height="40" rx="6" fill="#EAEBFF"/>
<path d="M19.8323 19.875C17.3384 19.875 15.3096 21.9038 15.3096 24.3975C15.3096 26.8914 17.3384 28.9202 19.8323 28.9202C22.3262 28.9202 24.3551 26.8914 24.3551 24.3975C24.3551 21.9038 22.3262 19.875 19.8323 19.875ZM20.3739 26.9025V26.9773C20.3739 27.2763 20.1314 27.5188 19.8324 27.5188C19.5333 27.5188 19.2908 27.2763 19.2908 26.9773V26.9068C18.8381 26.7415 18.4772 26.3751 18.33 25.8905C18.243 25.6045 18.4043 25.302 18.6904 25.215C18.9762 25.1274 19.2792 25.289 19.3659 25.5754C19.4291 25.7827 19.6163 25.9217 19.8324 25.9217C20.1021 25.9217 20.3215 25.7002 20.3215 25.4278C20.3215 25.1581 20.1021 24.9387 19.8324 24.9387C19.418 24.9387 19.0243 24.7774 18.7239 24.4844C18.4215 24.1745 18.2602 23.7808 18.2602 23.3665C18.2602 22.6887 18.6911 22.1145 19.2908 21.892V21.818C19.2908 21.519 19.5333 21.2765 19.8324 21.2765C20.1314 21.2765 20.3739 21.519 20.3739 21.818V21.8877C20.8268 22.053 21.1876 22.4194 21.335 22.904C21.4218 23.1904 21.2605 23.4928 20.9744 23.5796C20.6862 23.6674 20.3855 23.505 20.2985 23.2192C20.2358 23.0126 20.0496 22.8741 19.8346 22.8732C19.8338 22.8732 19.8331 22.8736 19.8324 22.8736C19.8317 22.8736 19.8311 22.8732 19.8304 22.8732C19.5617 22.8743 19.3432 23.0951 19.3432 23.3665C19.3432 23.5333 19.4231 23.6502 19.4897 23.7187C19.5487 23.7758 19.6655 23.8556 19.8324 23.8556C20.6994 23.8556 21.4046 24.5608 21.4046 25.4278C21.4046 26.1058 20.9737 26.6801 20.3739 26.9025Z" fill="#332EBF"/>
<path d="M10.9207 16.8682L18.7889 18.888C16.2059 19.3808 14.2456 21.6498 14.2294 24.3628C13.4821 24.2437 12.881 24.1137 12.4802 23.9945C11.5597 23.7292 10.9207 22.8736 10.9207 21.9097V16.8682Z" fill="#332EBF"/>
<path d="M28.7474 16.8682V21.9097C28.7474 22.8736 28.103 23.7292 27.177 23.9945C26.6193 24.157 26.0398 24.2924 25.4388 24.4007V24.3953C25.4388 21.666 23.4731 19.3808 20.8792 18.888L28.7474 16.8682Z" fill="#332EBF"/>
<path d="M31.9208 24.9428V24.7695C32.549 24.5475 33.0038 23.9464 33.0038 23.2424C33.0038 22.533 32.549 21.9319 31.9208 21.7099V14.5131C31.9208 14.237 31.7042 14.0149 31.4876 13.9824L19.964 11.0203C19.8774 10.9932 19.7854 10.9932 19.6987 11.0203L8.14808 13.9878C7.90981 14.0474 7.74194 14.264 7.74194 14.5131C7.74194 14.7568 7.90981 14.9734 8.14808 15.0384L19.6987 18.0059C19.7809 18.0265 19.8726 18.0288 19.964 18.0059L30.8378 15.2117V21.7099C30.2042 21.9319 29.7547 22.533 29.7547 23.2424C29.7547 23.9464 30.2042 24.5475 30.8378 24.7695V24.9428C30.3775 25.0349 30.0201 25.4302 29.9822 25.9175L29.8035 28.2623C29.7764 28.5601 29.8847 28.858 30.085 29.08C30.2908 29.302 30.5778 29.4266 30.8811 29.4266H31.8775C32.1807 29.4266 32.4677 29.302 32.6735 29.08C32.8739 28.858 32.9822 28.5601 32.9551 28.2623L32.7764 25.9175C32.7385 25.4302 32.3811 25.0349 31.9208 24.9428ZM23.0182 14.0582C22.9424 14.3452 22.65 14.5239 22.3576 14.4481L19.8341 13.7983L17.3052 14.4481C17.2564 14.459 17.2131 14.4644 17.1698 14.4644C16.9261 14.4644 16.7095 14.3019 16.6445 14.0582C16.5687 13.7658 16.742 13.4734 17.0344 13.3976L19.6987 12.7153C19.7854 12.6882 19.8774 12.6882 19.964 12.7153L22.6283 13.3976C22.9208 13.4734 23.094 13.7658 23.0182 14.0582Z" fill="#332EBF"/>
</svg>
