<svg width="19" height="14" viewBox="0 0 19 14" fill="none" xmlns="http://www.w3.org/2000/svg">
<path d="M8.685 6.75781C6.89347 6.75781 5.43604 8.21525 5.43604 10.0066C5.43604 11.7981 6.89347 13.2555 8.685 13.2555C10.4765 13.2555 11.9339 11.7981 11.9339 10.0066C11.9339 8.21525 10.4765 6.75781 8.685 6.75781ZM9.07403 11.8061V11.8598C9.07403 12.0746 8.89985 12.2488 8.68502 12.2488C8.4702 12.2488 8.29602 12.0746 8.29602 11.8598V11.8091C7.97076 11.6904 7.71156 11.4272 7.60576 11.0791C7.54327 10.8736 7.65914 10.6563 7.86466 10.5938C8.06999 10.531 8.28766 10.647 8.34996 10.8527C8.39536 11.0016 8.52984 11.1015 8.68502 11.1015C8.87877 11.1015 9.03642 10.9424 9.03642 10.7467C9.03642 10.553 8.87877 10.3953 8.68502 10.3953C8.38738 10.3953 8.10456 10.2795 7.88878 10.069C7.67148 9.84639 7.55562 9.56357 7.55562 9.26593C7.55562 8.77903 7.86516 8.36654 8.29602 8.20678V8.15361C8.29602 7.93879 8.4702 7.76461 8.68502 7.76461C8.89985 7.76461 9.07403 7.93879 9.07403 8.15361V8.20367C9.39938 8.3224 9.65853 8.58562 9.76448 8.93371C9.82678 9.13942 9.71091 9.35672 9.50539 9.41902C9.29835 9.48208 9.08239 9.36546 9.0199 9.16013C8.97486 9.01173 8.84109 8.91227 8.68659 8.91156C8.68605 8.91156 8.68557 8.91187 8.68502 8.91187C8.68453 8.91187 8.68412 8.91159 8.68362 8.91159C8.49057 8.91239 8.33363 9.07097 8.33363 9.26593C8.33363 9.38578 8.39099 9.46974 8.43886 9.51893C8.48122 9.55996 8.56517 9.61732 8.68502 9.61732C9.30785 9.61732 9.81443 10.1239 9.81443 10.7467C9.81443 11.2338 9.50489 11.6463 9.07403 11.8061Z" fill="#2C7938"/>
<path d="M2.2832 4.59766L7.93546 6.04864C6.0799 6.40265 4.6717 8.03258 4.66004 9.98147C4.12321 9.8959 3.69142 9.80255 3.40354 9.71695C2.74225 9.52634 2.2832 8.91171 2.2832 8.21929V4.59766Z" fill="#2C7938"/>
<path d="M15.0893 4.59766V8.21929C15.0893 8.91171 14.6263 9.52634 13.9611 9.71695C13.5605 9.83365 13.1442 9.9309 12.7125 10.0087V10.0048C12.7125 8.04424 11.3004 6.40265 9.43701 6.04864L15.0893 4.59766Z" fill="#2C7938"/>
<path d="M17.3691 10.3977V10.2733C17.8203 10.1138 18.1471 9.68199 18.1471 9.17626C18.1471 8.66667 17.8203 8.23488 17.3691 8.07539V2.9055C17.3691 2.70713 17.2135 2.54762 17.0579 2.52428L8.77985 0.396438C8.71762 0.376969 8.65149 0.376969 8.58924 0.396438L0.291754 2.52818C0.120591 2.57096 0 2.72657 0 2.9055C0 3.08056 0.120591 3.23617 0.291754 3.28285L8.58924 5.41459C8.64832 5.42937 8.71418 5.43103 8.77985 5.41459L16.5911 3.40733V8.07539C16.1359 8.23488 15.8131 8.66667 15.8131 9.17626C15.8131 9.68199 16.1359 10.1138 16.5911 10.2733V10.3977C16.2604 10.4639 16.0037 10.7479 15.9764 11.0979L15.8481 12.7823C15.8286 12.9963 15.9064 13.2103 16.0504 13.3697C16.1982 13.5292 16.4044 13.6187 16.6222 13.6187H17.338C17.5558 13.6187 17.762 13.5292 17.9098 13.3697C18.0537 13.2103 18.1315 12.9963 18.1121 12.7823L17.9837 11.0979C17.9565 10.7479 17.6997 10.4639 17.3691 10.3977ZM10.9738 2.57875C10.9194 2.78491 10.7093 2.91329 10.4993 2.85882L8.68649 2.39204L6.86984 2.85882C6.83482 2.86661 6.80372 2.8705 6.77259 2.8705C6.59753 2.8705 6.44192 2.75381 6.39524 2.57875C6.3408 2.36867 6.46526 2.15862 6.67534 2.10415L8.58924 1.61403C8.65149 1.59456 8.71762 1.59456 8.77985 1.61403L10.6938 2.10415C10.9038 2.15862 11.0283 2.36867 10.9738 2.57875Z" fill="#2C7938"/>
</svg>
