<svg width="40" height="40" viewBox="0 0 40 40" fill="none" xmlns="http://www.w3.org/2000/svg">
<rect width="40" height="40" rx="6" fill="#EAEBFF"/>
<path d="M21.4103 25.6408V31H18.5897V25.6408C18.5897 25.4851 18.7161 25.3587 18.8718 25.3587H21.1282C21.2839 25.3587 21.4103 25.4851 21.4103 25.6408ZM26.4872 17.893V30.1538C26.4872 30.6209 26.1081 31 25.641 31H23.1026V25.6408C23.1026 24.552 22.2169 23.6663 21.1282 23.6663H18.8718C17.7831 23.6663 16.8974 24.552 16.8974 25.6408V31H14.359C13.8919 31 13.5128 30.6209 13.5128 30.1538V17.893C13.5128 16.8098 14.0905 15.791 15.0178 15.2325L19.1538 12.7515V9.8462C19.1538 9.3791 19.5329 9 20 9C20.4671 9 20.8462 9.3791 20.8462 9.8462V10.1283H22.2564C22.7235 10.1283 23.1026 10.5074 23.1026 10.9745C23.1026 11.4416 22.7235 11.8207 22.2564 11.8207H20.8462V12.7515L24.981 15.2314C25.9095 15.791 26.4872 16.8098 26.4872 17.893ZM21.1282 18.8712C21.1282 18.2484 20.6228 17.7429 20 17.7429C19.3772 17.7429 18.8718 18.2484 18.8718 18.8712C18.8718 19.494 19.3772 19.9994 20 19.9994C20.6228 19.9994 21.1282 19.494 21.1282 18.8712ZM28.1795 19.1645V30.1538C28.1795 30.4472 28.1231 30.7405 28.0328 31H29.0256C30.1087 31 31 30.1087 31 29.0255V22.256C31 20.6313 29.759 19.3112 28.1795 19.1645ZM11.8205 19.1645C10.241 19.3112 9 20.6313 9 22.256V29.0255C9 30.1087 9.89128 31 10.9744 31H11.9672C11.8769 30.7405 11.8205 30.4472 11.8205 30.1538V19.1645Z" fill="#332EBF"/>
</svg>
