<svg width="40" height="40" viewBox="0 0 40 40" fill="none" xmlns="http://www.w3.org/2000/svg">
<g clip-path="url(#clip0_8_4586)">
<rect width="40" height="40" rx="6" fill="#EAEBFF"/>
<g filter="url(#filter0_d_8_4586)">
<path d="M17.8808 19.8486H12.3691C11.997 19.8486 11.6953 19.5469 11.6953 19.1748C11.6953 18.8027 11.997 18.501 12.3691 18.501L20.6029 18.4605C20.8553 17.1191 21.9057 16.0564 23.2402 15.7844V11.0889C23.2402 10.7167 22.9385 10.415 22.5664 10.415H9.67383C9.3017 10.415 9 10.7167 9 11.0889V27.2158C9 27.588 9.3017 27.8896 9.67383 27.8896H17.7598V24.4507C17.5531 24.0065 17.4453 23.5192 17.4453 23.0197V21.3805C17.4453 20.819 17.605 20.2943 17.8808 19.8486ZM12.3691 13.1104H19.8711C20.2432 13.1104 20.5449 13.4121 20.5449 13.7842C20.5449 14.1564 20.2432 14.4581 19.8711 14.4581H12.3691C11.997 14.4581 11.6953 14.1564 11.6953 13.7842C11.6953 13.4121 11.997 13.1104 12.3691 13.1104ZM12.3691 15.8057H19.8711C20.2432 15.8057 20.5449 16.1074 20.5449 16.4795C20.5449 16.8517 20.2432 17.1534 19.8711 17.1534H12.3691C11.997 17.1534 11.6953 16.8517 11.6953 16.4795C11.6953 16.1074 11.997 15.8057 12.3691 15.8057ZM13.9863 22.544H12.3691C11.997 22.544 11.6953 22.2423 11.6953 21.8702C11.6953 21.498 11.997 21.1963 12.3691 21.1963H13.9863C14.3585 21.1963 14.6602 21.498 14.6602 21.8702C14.6602 22.2423 14.3585 22.544 13.9863 22.544Z" fill="#332EBF"/>
<path d="M24.6804 25.958H26.0281V27.3057H24.6804V25.958Z" fill="#332EBF"/>
<path d="M27.3757 27.1997V27.9796C27.3757 28.3518 27.074 28.6535 26.7019 28.6535H24.0066C23.6345 28.6535 23.3328 28.3518 23.3328 27.9796V27.211L19.9171 26.2673C19.6272 26.1872 19.3562 26.0722 19.1074 25.9281V28.7433C19.1074 29.7588 19.9337 30.5851 20.9492 30.5851H29.8437C30.8593 30.5851 31.6855 29.7588 31.6855 28.7433V25.9209C31.43 26.0685 31.1512 26.1857 30.8523 26.2659L27.3757 27.1997Z" fill="#332EBF"/>
<path d="M22.041 18.4605H28.7519C28.4511 17.7211 27.7251 17.1982 26.8788 17.1982H23.914C23.0678 17.1982 22.3419 17.7211 22.041 18.4605Z" fill="#332EBF"/>
<path d="M30.4277 19.8086H20.3652C19.4983 19.8086 18.793 20.5139 18.793 21.3809V23.0201C18.793 23.9405 19.389 24.7235 20.2761 24.9686L23.3328 25.8132V25.2846C23.3328 24.9124 23.6345 24.6107 24.0066 24.6107H26.702C27.0741 24.6107 27.3758 24.9124 27.3758 25.2846V25.8045L30.5028 24.9647C31.3983 24.7242 32 23.9396 32 23.0124V21.3809C32 20.5139 31.2947 19.8086 30.4277 19.8086Z" fill="#332EBF"/>
</g>
</g>
<defs>
<filter id="filter0_d_8_4586" x="1" y="5" width="39" height="39" filterUnits="userSpaceOnUse" color-interpolation-filters="sRGB">
<feFlood flood-opacity="0" result="BackgroundImageFix"/>
<feColorMatrix in="SourceAlpha" type="matrix" values="0 0 0 0 0 0 0 0 0 0 0 0 0 0 0 0 0 0 127 0" result="hardAlpha"/>
<feOffset dy="4"/>
<feGaussianBlur stdDeviation="4"/>
<feComposite in2="hardAlpha" operator="out"/>
<feColorMatrix type="matrix" values="0 0 0 0 0.263487 0 0 0 0 0.211426 0 0 0 0 0.58329 0 0 0 0.08 0"/>
<feBlend mode="normal" in2="BackgroundImageFix" result="effect1_dropShadow_8_4586"/>
<feBlend mode="normal" in="SourceGraphic" in2="effect1_dropShadow_8_4586" result="shape"/>
</filter>
<clipPath id="clip0_8_4586">
<rect width="40" height="40" rx="6" fill="white"/>
</clipPath>
</defs>
</svg>
