<svg width="40" height="40" viewBox="0 0 40 40" fill="none" xmlns="http://www.w3.org/2000/svg">
<rect width="40" height="40" rx="6" fill="#EAEBFF"/>
<g clip-path="url(#clip0_8_4579)">
<path d="M25 16.7083C24.9099 16.7083 24.8198 16.6882 24.7358 16.648L19.267 14.0125C19.029 13.8966 18.875 13.6398 18.875 13.3542C18.875 13.0686 19.029 12.8118 19.267 12.6958L24.7358 10.0604C24.9038 9.97988 25.0963 9.97988 25.2643 10.0604L30.733 12.6958C30.971 12.8118 31.125 13.0686 31.125 13.3542C31.125 13.6398 30.971 13.8966 30.733 14.0125L25.2643 16.648C25.1803 16.6882 25.0901 16.7083 25 16.7083Z" fill="#332EBF"/>
<path d="M25.7928 17.9642C25.5381 18.0859 25.273 18.1463 25 18.1463C24.727 18.1463 24.4619 18.0859 24.2107 17.9661L20.625 16.2373V16.8966C20.625 17.4812 20.9041 18.0313 21.353 18.3293C22.6139 19.1669 23.8074 19.5867 25 19.5867C26.1926 19.5867 27.3861 19.1669 28.647 18.3293C29.0959 18.0313 29.375 17.4822 29.375 16.8966V16.2373L25.7928 17.9642Z" fill="#332EBF"/>
<path d="M27.625 20.9825C26.7413 21.3371 25.875 21.5 25 21.5C23.4862 21.5 21.9987 21.0017 20.4412 19.9667C19.4787 19.3246 18.875 18.1458 18.875 16.9V15.9225L18.56 15.7692C17.685 15.3475 17.125 14.3988 17.125 13.3542C17.125 12.3096 17.685 11.3608 18.56 10.9392L20.5112 10H14.5C13.0562 10 11.875 11.2938 11.875 12.875V26.7708C11.875 27.71 13.0466 29.1667 14.5 29.1667H17.125V32.2812C17.125 32.9061 17.8057 33.229 18.2188 32.8179L19.75 31.3229L21.2812 32.8179C21.6803 33.2233 22.375 32.9166 22.375 32.2812V29.1667H26.75C27.2312 29.1667 27.625 28.7354 27.625 28.2083C27.625 27.5222 27.625 22.1057 27.625 20.9825ZM17.125 27.25H14.5C14.0187 27.25 13.625 26.8188 13.625 26.2917C13.625 25.7646 14.0187 25.3333 14.5 25.3333H17.125V27.25ZM25.875 27.25H22.375V25.3333H25.875V27.25Z" fill="#332EBF"/>
</g>
<defs>
<clipPath id="clip0_8_4579">
<rect width="21" height="23" fill="white" transform="translate(11 10)"/>
</clipPath>
</defs>
</svg>
