<svg width="20" height="20" viewBox="0 0 20 20" fill="none" xmlns="http://www.w3.org/2000/svg">
<g clip-path="url(#clip0_8_4525)">
<g clip-path="url(#clip1_8_4525)">
<path d="M20.1 10.05C20.1 4.49955 15.6005 0 10.05 0C4.49955 0 0 4.49955 0 10.05C0 15.6005 4.49955 20.1 10.05 20.1C15.6005 20.1 20.1 15.6005 20.1 10.05Z" fill="#4FAD59"/>
<path d="M20.7283 10.6777L13.5049 5.9668L8.23584 13.7472L15.6706 18.9218C20.1922 18.2999 20.2092 15.231 20.7283 10.6777Z" fill="#3B9B45"/>
</g>
<path d="M8.78285 11.6007L9.70217 10.2552C10.6317 8.89156 11.5616 7.53133 12.4919 6.17451C12.7681 5.77338 13.1363 5.71997 13.5351 5.98815C13.684 6.08929 13.8351 6.18474 13.9817 6.28815C14.3476 6.54724 14.4226 6.92679 14.1692 7.29838C13.176 8.75747 12.1806 10.2154 11.1828 11.6722C10.6972 12.3806 10.2147 13.0893 9.73512 13.7984C9.4533 14.2166 9.08853 14.2972 8.67376 14.0052C7.78512 13.3802 6.90141 12.748 6.02262 12.1086C5.6283 11.8234 5.58171 11.4552 5.8658 11.0597C5.97944 10.9052 6.08512 10.7484 6.19989 10.5961C6.43626 10.2847 6.79194 10.2063 7.12035 10.4222C7.5033 10.6745 7.87148 10.9507 8.24648 11.2177L8.78285 11.6007Z" fill="white"/>
</g>
<defs>
<clipPath id="clip0_8_4525">
<rect width="20" height="20" fill="white"/>
</clipPath>
<clipPath id="clip1_8_4525">
<rect width="20.1" height="20.1" rx="10.05" fill="white"/>
</clipPath>
</defs>
</svg>
